<svg width="226" height="167" viewBox="0 0 226 167" fill="none" xmlns="http://www.w3.org/2000/svg">
    <g filter="url(#filter0_d_353_4894)">
        <rect x="21.3229" y="21.3229" width="182.562" height="124.354" rx="14.5521" fill="white" stroke="#D9D9D9" stroke-width="2.64583"/>
        <path d="M149.646 77.0395C149.264 74.7482 147.164 73.2206 144.3 73.2206C143.345 73.2206 142.581 73.2206 141.626 73.2206C139.908 73.0296 139.526 73.6025 139.526 74.9391C139.526 81.6223 139.526 88.1146 139.526 94.7977C139.526 98.2348 136.089 101.863 132.079 102.627C119.476 105.491 106.874 108.164 94.2711 111.028C92.9344 111.41 91.4069 111.41 89.8793 111.41C89.3064 111.41 88.3517 111.028 88.1608 110.456C87.9698 110.074 88.5426 109.31 88.9245 108.928C89.4974 108.546 90.2612 108.164 91.025 107.782C93.3164 107.018 95.7987 106.255 98.09 105.491C107.446 102.436 116.803 99.3805 126.159 96.1344C130.36 94.7977 132.652 91.9335 132.652 88.3055C132.843 76.8486 132.652 65.2008 132.652 53.7439C132.652 51.8344 131.697 50.3068 129.597 49.543C127.114 48.5883 124.823 49.352 122.722 50.3068C109.356 56.6081 96.1805 62.9094 82.8142 69.2107C78.9952 71.1202 76.7039 73.7934 76.7039 77.6124C76.7039 88.4964 76.7039 99.3805 76.7039 110.265C76.7039 110.837 76.7038 111.41 76.8948 111.792C78.2314 115.42 81.6685 117.712 86.2513 117.712C95.6077 117.712 104.964 117.712 114.321 117.712C123.677 117.712 132.843 117.712 142.199 117.712C144.3 117.712 146.018 117.33 147.546 115.993C149.455 114.465 149.455 112.365 149.455 110.456C149.455 101.061 149.646 77.0395 149.646 77.0395ZM110.693 73.6025C111.647 71.1202 113.748 69.5926 116.803 69.2107C118.903 69.0197 120.622 70.1654 121.004 72.0749C121.386 74.9391 117.949 78.3762 114.321 78.3762C111.456 78.3762 109.738 76.2758 110.693 73.6025Z" fill="#FD6727"/>
    </g>
    <defs>
        <filter id="filter0_d_353_4894" x="0" y="0" width="225.208" height="167" filterUnits="userSpaceOnUse" color-interpolation-filters="sRGB">
            <feFlood flood-opacity="0" result="BackgroundImageFix"/>
            <feColorMatrix in="SourceAlpha" type="matrix" values="0 0 0 0 0 0 0 0 0 0 0 0 0 0 0 0 0 0 127 0" result="hardAlpha"/>
            <feOffset/>
            <feGaussianBlur stdDeviation="10"/>
            <feComposite in2="hardAlpha" operator="out"/>
            <feColorMatrix type="matrix" values="0 0 0 0 0 0 0 0 0 0 0 0 0 0 0 0 0 0 0.07 0"/>
            <feBlend mode="normal" in2="BackgroundImageFix" result="effect1_dropShadow_353_4894"/>
            <feBlend mode="normal" in="SourceGraphic" in2="effect1_dropShadow_353_4894" result="shape"/>
        </filter>
    </defs>
</svg>
